# xmcd
#
# Track frame offsets:
#	183
#	12655
#	24470
#	36713
#	57245
#	69545
#	79275
#	92940
#	106813
#	121385
#	131828
#	153703
#	168888
#	180073
#	190458
#	203495
#	213605
#	224668
#	246558
#	261773
#
# Disc length: 3670 seconds
#
# Revision: 0
# Processed by: cddbd v1.4PL0 Copyright (c) Steve Scherf et al.
# Submitted via: MusicWizard 6.0.0
#
DISCID=310e5414
DTITLE=Various Artist - SUPER TRUCKER SONGS
DYEAR=1988
DGENRE=Country
TTITLE0=ASTOR TOM - ICH BIN WIEDER AUF DER AUTOBAHN
TTITLE1=COUNTRY GREEN+TOMMY OREGO - HEISSE GIRLS - STARKE KERLS
TTITLE2=ASTOR TOM - ICH BIN DAFÜR,DASS WIR DAGEGEN SIND
TTITLE3=HILL JONNY - HALLO TEDDYBÄR
TTITLE4=ASTOR TOM - TRUCKER SIND PARTNER
TTITLE5=PAULSEN RALF - JEDER KILOMETER
TTITLE6=ASTOR TOM - DER KLEINE TRUCKER
TTITLE7=GABRIEL GUNTER - MEIN LASTER IST MEIN LASTER
TTITLE8=RANGERS THE - ICH HÖR` SO GERNE CAJUN-MUSIC
TTITLE9=ASTOR TOM - WENN EIN ZARTES WESEN MIT GEFÜHL
TTITLE10=WESTERN UNION - WIR GEHÖREN DOCH ZUSAMMEN
TTITLE11=ASTOR TOM - HALT ABSTAND JUNGE
TTITLE12=NASHVILLE STUDIO BAND - ENZIAN AUF DER AUTOBAHN
TTITLE13=GLENN MIKE - EINMAL IM JAHR
TTITLE14=DÄ DRÜJJE PITER - SIE IST EIN TRUCKERFAN
TTITLE15=ASTOR TOM - DIE LIEBE HAT ES SCHWER IM DICHTEN
TTITLE16=STONE HANK - HEY ALTES HAUS
TTITLE17=KAMERADEN DER STRASSE - DAS DIESEL-BAND
TTITLE18=ASTOR TOM - SONNTAGMORGEN
TTITLE19=COUNTRY PICKERS - HIGHWAY DREAMS
EXTD=
EXTT0=
EXTT1=
EXTT2=
EXTT3=
EXTT4=
EXTT5=
EXTT6=
EXTT7=
EXTT8=
EXTT9=
EXTT10=
EXTT11=
EXTT12=
EXTT13=
EXTT14=
EXTT15=
EXTT16=
EXTT17=
EXTT18=
EXTT19=
PLAYORDER=
